<svg width="128" height="102" viewBox="0 0 128 102" fill="none" xmlns="http://www.w3.org/2000/svg">
<path d="M66.6765 2.70286C60.3886 5.9973 55.2872 14.0409 55.2872 20.6725C55.2872 21.5197 55.3739 22.2984 55.5298 23.0172C56.6124 27.8861 61.1941 29.5804 66.6765 26.6966C72.133 23.8386 76.6886 17.4209 77.8059 11.4481C77.9878 10.524 78.0745 9.6169 78.0745 8.73553C78.0745 2.10386 72.9731 -0.59158 66.6765 2.70286V2.70286Z" stroke="#724DE9" stroke-width="2" stroke-linecap="round" stroke-linejoin="round"/>
<path d="M31.9378 70.8136C31.7734 77.4727 33.6166 82.7308 36.7579 86.4841C33.132 91.1887 28.8571 95.1928 24.3486 97.891C13.3584 104.472 1.09618 97.9342 1.00099 85.2214C0.905802 73.3734 7.67295 60.8249 16.7766 52.661C17.5468 55.8781 20.5236 56.9678 24.0976 55.0306C27.585 53.1367 30.5099 48.9596 31.358 44.9814C33.8416 44.696 36.2993 44.9209 38.5319 45.6559C34.5599 53.7247 32.1455 62.3989 31.9378 70.8136V70.8136Z" stroke="#724DE9" stroke-width="2" stroke-linecap="round" stroke-linejoin="round"/>
<path d="M23.7914 38.4372C19.7122 40.6692 16.4149 46.0996 16.4149 50.5721C16.4149 51.1964 16.4829 51.7694 16.6018 52.291C17.3582 55.4723 20.2816 56.5498 23.7914 54.6342C27.2163 52.7614 30.0888 48.6309 30.9216 44.6971C31.0746 43.9531 31.1596 43.2177 31.1596 42.5079C31.1596 38.0353 27.8622 36.2138 23.7914 38.4372V38.4372Z" stroke="#724DE9" stroke-width="2" stroke-linecap="round" stroke-linejoin="round"/>
<path d="M126.964 37.5835C126.095 51.7181 115.492 68.079 103.417 75.1463C96.7477 79.0467 89.4497 78.296 84.7766 74.1627C94.8199 62.6168 101.765 47.6451 101.911 33.3465C102.316 33.1998 102.738 33.01 103.168 32.7856C106.688 30.9217 109.64 26.7883 110.492 22.8621C119.072 21.9042 127.627 26.8056 126.964 37.5835V37.5835Z" stroke="#724DE9" stroke-width="2" stroke-linecap="round" stroke-linejoin="round"/>
<path d="M100.783 26.7757C100.258 24.5611 99.4495 22.5706 98.4087 20.8214C94.1594 13.6434 86.0823 10.4379 77.3602 11.5753C76.2505 17.59 71.7261 24.0527 66.307 26.9308C60.8621 29.8348 56.3118 28.1286 55.2365 23.2255C48.4068 29.3522 42.5404 37.1334 38.3944 45.5694C34.4462 53.6091 32.0463 62.252 31.8399 70.6364C31.6764 77.2715 33.5086 82.5106 36.631 86.2504C43.2027 94.1522 55.486 95.3931 66.6855 89.1457C73.0852 85.5697 79.1666 80.4943 84.405 74.4796C94.4433 62.95 101.385 47.9994 101.531 33.721V33.609C101.548 31.1359 101.29 28.8524 100.783 26.7757V26.7757Z" stroke="#724DE9" stroke-width="2" stroke-linecap="round" stroke-linejoin="round"/>
<path d="M103.272 16.9782C101.622 17.8282 100.093 19.1712 98.8511 20.7436C99.902 22.4691 100.718 24.4326 101.248 26.6171C101.761 28.6656 102.021 30.918 102.004 33.3575V33.468C102.412 33.3235 102.838 33.1365 103.272 32.9155C106.824 31.0796 109.803 27.0081 110.663 23.1406C110.828 22.4096 110.915 21.6871 110.915 20.9816C110.915 16.5787 107.493 14.7852 103.272 16.9782V16.9782Z" stroke="#724DE9" stroke-width="2" stroke-linecap="round" stroke-linejoin="round"/>
</svg>
